<?xml version="1.0" encoding="UTF-8" standalone="no"?>
<svg
   id="Layer_1"
   data-name="Layer 1"
   version="1.1"
   viewBox="0 0 1217.5999 1217.6"
   sodipodi:docname="EPP-Color-Logol.svg"
   inkscape:export-filename="D:\Users\merks\epp\git\packaging.github\assets\svg\EPP-Color-Horizontal.png"
   inkscape:export-xdpi="43.087971"
   inkscape:export-ydpi="43.087971"
   inkscape:version="1.1 (c68e22c387, 2021-05-23)"
   width="1217.6"
   height="1217.6"
   xmlns:inkscape="http://www.inkscape.org/namespaces/inkscape"
   xmlns:sodipodi="http://sodipodi.sourceforge.net/DTD/sodipodi-0.dtd"
   xmlns="http://www.w3.org/2000/svg"
   xmlns:svg="http://www.w3.org/2000/svg">
  <sodipodi:namedview
     id="namedview79"
     pagecolor="#ffffff"
     bordercolor="#666666"
     borderopacity="1.0"
     inkscape:pageshadow="2"
     inkscape:pageopacity="0.0"
     inkscape:pagecheckerboard="0"
     showgrid="false"
     inkscape:zoom="0.39572111"
     inkscape:cx="1336.8"
     inkscape:cy="607.75125"
     inkscape:window-width="2185"
     inkscape:window-height="1157"
     inkscape:window-x="4486"
     inkscape:window-y="519"
     inkscape:window-maximized="0"
     inkscape:current-layer="Layer_1" />
  <defs
     id="defs10">
    <style
       id="style2">
      .cls-1 {
        fill: #f79722;
      }

      .cls-1, .cls-2, .cls-3, .cls-4, .cls-5 {
        stroke-width: 0px;
      }

      .cls-6 {
        clip-path: url(#clippath);
      }

      .cls-2 {
        fill: none;
      }

      .cls-3 {
        fill: #f69322;
      }

      .cls-7 {
        clip-path: url(#clippath-1);
      }

      .cls-4 {
        fill: #3d3c3b;
      }

      .cls-5 {
        fill: #f89523;
      }
    </style>
    <clipPath
       id="clippath">
      <rect
         class="cls-2"
         x="-9"
         y="156.5"
         width="913.59998"
         height="913.59998"
         id="rect4" />
    </clipPath>
    <clipPath
       id="clippath-1">
      <rect
         class="cls-2"
         x="-9"
         y="156.5"
         width="913.59998"
         height="913.59998"
         id="rect7" />
    </clipPath>
  </defs>
  <g
     class="cls-6"
     clip-path="url(#clippath)"
     id="g16"
     transform="matrix(1.1608005,0,0,1.1337514,-21.067693,-89.63165)">
    <g
       class="cls-7"
       clip-path="url(#clippath-1)"
       id="g14">
      <path
         class="cls-5"
         d="m 213.5,427.7 c 132.8,-207.2 398.8,-279.5 620.6,-180 -4.9,-3.4 -9.8,-6.8 -14.9,-10.1 C 592.1,91.9 290.2,157.4 145,383.8 -0.1,610.2 66.3,911.9 293.5,1057.6 c 5.1,3.2 10.3,6.3 15.4,9.3 -183,-160.1 -228.2,-432 -95.4,-639.2"
         id="path12" />
    </g>
  </g>
  <path
     class="cls-4"
     d="m 753.53445,514.09094 c 0.23217,-1.13375 1.27688,-1.70063 2.08944,-2.49425 65.12091,-63.71683 130.35789,-127.43366 195.4788,-191.15048 1.97337,-1.92738 2.902,-1.70063 4.6432,0 65.00471,63.71682 130.12581,127.32028 195.36271,190.92372 1.8573,1.814 2.0894,2.60764 0,4.53501 -65.2369,63.60345 -130.358,127.32028 -195.59487,191.03711 -0.81256,0.79362 -1.27687,1.814 -2.55376,1.92737 -1.39296,-0.4535 -2.20552,-1.58725 -3.25024,-2.60763 -30.18081,-29.47753 -60.12946,-59.29519 -90.77459,-88.54597 -34.59186,-33.10555 -68.48723,-66.89133 -102.84692,-100.11025 -1.04473,-1.02038 -2.66984,-1.92738 -2.66984,-3.74138 z"
     id="path18" />
  <path
     class="cls-4"
     d="m 553.64461,709.43629 c 7.42913,7.36939 14.97433,14.73877 22.40346,22.10816 58.27217,57.02769 116.66044,114.05539 174.93262,171.08308 0.5804,0.56688 1.39296,1.13375 1.97336,1.81401 0,1.13374 -1.04472,1.70062 -1.62512,2.38087 -65.35306,63.8302 -130.70613,127.66039 -195.94312,191.60399 -1.7412,1.7007 -2.66983,1.5874 -4.29496,0 -65.23698,-63.8302 -130.47396,-127.66042 -195.82703,-191.37724 -1.62512,-1.58725 -1.7412,-2.49426 0,-4.0815 65.35307,-63.8302 130.70613,-127.6604 195.94312,-191.60398 0.69647,-0.68026 1.27687,-1.58726 2.3216,-1.81401 z"
     id="path20" />
  <path
     class="cls-3"
     d="m 753.53445,904.44154 c 0.69648,-0.68026 1.50904,-1.24713 2.20553,-1.92739 65.1209,-63.60345 130.12572,-127.20689 195.13055,-190.81035 0.69648,-0.68025 1.39296,-1.47387 1.97336,-2.15413 3.25024,2.04075 5.68793,4.98851 8.35777,7.70951 43.41384,42.40231 86.82784,84.91798 130.12574,127.32029 19.8496,19.38714 39.6994,38.77429 59.549,58.16143 1.8573,1.814 1.9734,2.72101 0,4.53501 -65.1209,63.60345 -130.2418,127.20689 -195.36267,190.92379 -1.85727,1.8141 -2.78592,1.9274 -4.75928,0 -65.12091,-63.7169 -130.35789,-127.43372 -195.4788,-191.15054 -0.81256,-0.79362 -1.85727,-1.24713 -1.85727,-2.60762 z"
     id="path22" />
  <path
     class="cls-3"
     d="m 753.18622,514.09094 c -0.5804,0.56687 -1.16081,1.02038 -1.74121,1.58725 -65.35306,63.94358 -130.70613,127.77378 -196.17527,191.71735 -0.5804,0.56688 -1.04473,1.13375 -1.62513,1.70064 -1.1608,-0.34013 -1.7412,-1.36051 -2.55376,-2.04076 -65.1209,-63.60345 -130.2418,-127.2069 -195.36271,-190.81035 -2.08944,-2.04075 -1.97337,-3.06114 0,-4.98851 65.12091,-63.49007 130.12573,-126.98015 195.13056,-190.5836 2.08944,-2.04075 3.01808,-1.70063 4.87535,0.11337 65.00483,63.71683 130.12574,127.32029 195.24664,190.92373 0.81256,0.79363 1.7412,1.36051 2.08944,2.49426 z"
     id="path24" />
  <g
     id="g76" />
</svg>
