<?xml version="1.0" encoding="UTF-8"?>
<svg id="Layer_1" data-name="Layer 1" xmlns="http://www.w3.org/2000/svg" xmlns:xlink="http://www.w3.org/1999/xlink" version="1.1" viewBox="0 0 2673.6 1217.6">
  <defs>
    <style>
      .cls-1 {
        fill: #f79722;
      }

      .cls-1, .cls-2, .cls-3, .cls-4, .cls-5 {
        stroke-width: 0px;
      }

      .cls-6 {
        clip-path: url(#clippath);
      }

      .cls-2 {
        fill: none;
      }

      .cls-3 {
        fill: #f69322;
      }

      .cls-7 {
        clip-path: url(#clippath-1);
      }

      .cls-4 {
        fill: #3d3c3b;
      }

      .cls-5 {
        fill: #f89523;
      }
    </style>
    <clipPath id="clippath">
      <rect class="cls-2" x="-9" y="156.5" width="913.6" height="913.6"/>
    </clipPath>
    <clipPath id="clippath-1">
      <rect class="cls-2" x="-9" y="156.5" width="913.6" height="913.6"/>
    </clipPath>
  </defs>
  <g class="cls-6">
    <g class="cls-7">
      <path class="cls-5" d="M213.5,427.7c132.8-207.2,398.8-279.5,620.6-180-4.9-3.4-9.8-6.8-14.9-10.1-227.1-145.7-529-80.2-674.2,146.2C-.1,610.2,66.3,911.9,293.5,1057.6c5.1,3.2,10.3,6.3,15.4,9.3-183-160.1-228.2-432-95.4-639.2"/>
    </g>
  </g>
  <path class="cls-4" d="M667.3,532.5c.2-1,1.1-1.5,1.8-2.2,56.1-56.2,112.3-112.4,168.4-168.6,1.7-1.7,2.5-1.5,4,0,56,56.2,112.1,112.3,168.3,168.4,1.6,1.6,1.8,2.3,0,4-56.2,56.1-112.3,112.3-168.5,168.5-.7.7-1.1,1.6-2.2,1.7-1.2-.4-1.9-1.4-2.8-2.3-26-26-51.8-52.3-78.2-78.1-29.8-29.2-59-59-88.6-88.3-.9-.9-2.3-1.7-2.3-3.3Z"/>
  <path class="cls-4" d="M495.1,704.8c6.4,6.5,12.9,13,19.3,19.5,50.2,50.3,100.5,100.6,150.7,150.9.5.5,1.2,1,1.7,1.6,0,1-.9,1.5-1.4,2.1-56.3,56.3-112.6,112.6-168.8,169-1.5,1.5-2.3,1.4-3.7,0-56.2-56.3-112.4-112.6-168.7-168.8-1.4-1.4-1.5-2.2,0-3.6,56.3-56.3,112.6-112.6,168.8-169,.6-.6,1.1-1.4,2-1.6Z"/>
  <path class="cls-3" d="M667.3,876.8c.6-.6,1.3-1.1,1.9-1.7,56.1-56.1,112.1-112.2,168.1-168.3.6-.6,1.2-1.3,1.7-1.9,2.8,1.8,4.9,4.4,7.2,6.8,37.4,37.4,74.8,74.9,112.1,112.3,17.1,17.1,34.2,34.2,51.3,51.3,1.6,1.6,1.7,2.4,0,4-56.1,56.1-112.2,112.2-168.3,168.4-1.6,1.6-2.4,1.7-4.1,0-56.1-56.2-112.3-112.4-168.4-168.6-.7-.7-1.6-1.1-1.6-2.3Z"/>
  <path class="cls-3" d="M667,532.5c-.5.5-1,.9-1.5,1.4-56.3,56.4-112.6,112.7-169,169.1-.5.5-.9,1-1.4,1.5-1-.3-1.5-1.2-2.2-1.8-56.1-56.1-112.2-112.2-168.3-168.3-1.8-1.8-1.7-2.7,0-4.4,56.1-56,112.1-112,168.1-168.1,1.8-1.8,2.6-1.5,4.2.1,56,56.2,112.1,112.3,168.2,168.4.7.7,1.5,1.2,1.8,2.2Z"/>
  <g>
    <path class="cls-1" d="M1182.2,361.3h107.5v33.4h-69.5v34.3h68.9v32.4h-68.9v34.8h69.5v33.4h-107.5v-168.3Z"/>
    <path class="cls-1" d="M1407.6,494.9c7.8,0,14.9-1.1,21.4-3.4,6.4-2.3,11.2-4.5,14.3-6.8l16.3,32.4c-4,3.4-10.8,6.8-20.5,10.3-9.6,3.5-21.1,5.2-34.4,5.2s-24.1-2.2-34.9-6.5c-10.9-4.3-20.5-10.4-28.8-18.3-8.3-7.9-14.8-17.1-19.5-27.7s-7.1-22.1-7.1-34.5,2.3-23.9,7-34.6c4.7-10.7,11.2-20,19.4-27.9,8.3-7.9,17.9-14,28.8-18.4,10.9-4.4,22.6-6.6,35-6.6s24.7,1.7,34.4,5.2c9.6,3.5,16.5,6.9,20.5,10.3l-16.3,32.4c-3.1-2.3-7.9-4.6-14.3-6.8-6.4-2.3-13.5-3.4-21.4-3.4s-16.2,1.3-22.7,4c-6.5,2.7-11.9,6.4-16.2,11-4.3,4.7-7.6,9.9-9.7,15.8-2.1,5.9-3.2,12-3.2,18.5s1.1,12.8,3.2,18.7c2.1,5.9,5.4,11.2,9.7,15.9,4.3,4.7,9.7,8.4,16.2,11,6.5,2.7,14,4,22.7,4Z"/>
    <path class="cls-1" d="M1483.9,361.3h38.1v134.9h61.1v33.4h-99.2v-168.3Z"/>
    <path class="cls-1" d="M1609.2,361.3h38.1v168.3h-38.1v-168.3Z"/>
    <path class="cls-1" d="M1677,361.3h61.2c10.8,0,20.5,1.9,29.2,5.7,8.7,3.8,15.6,9.5,20.7,17.2,5.1,7.7,7.7,17.3,7.7,28.9s-2.6,21.2-7.7,29.3c-5.1,8-12,14.2-20.7,18.4s-18.4,6.3-29.2,6.3h-23.1v62.6h-38.1v-168.3ZM1715.2,436.9h12.5c5.2,0,9.8-.8,14-2.3,4.1-1.5,7.4-4,9.9-7.3,2.5-3.4,3.7-7.8,3.7-13.3s-1.2-10.1-3.7-13.3c-2.5-3.3-5.8-5.6-9.9-7.1-4.1-1.4-8.8-2.2-14-2.2h-12.5v45.5Z"/>
    <path class="cls-1" d="M1879.1,358.2c10.5,0,19.6,1.1,27.4,3.4,7.8,2.3,14.1,4.7,18.9,7.3,4.8,2.5,7.7,4.3,8.7,5.1l-18.4,30.7c-1.4-1-3.7-2.5-6.9-4.5-3.3-2-7.1-3.7-11.6-5.2-4.5-1.5-9.1-2.3-14-2.3s-11.8,1.2-15.9,3.5c-4,2.3-6.1,5.8-6.1,10.4s1.1,6,3.3,8.5c2.2,2.5,5.5,4.9,9.9,7.1,4.5,2.3,10.1,4.7,17,7.3,6.3,2.3,12.2,5,17.7,8.2,5.5,3.1,10.4,6.9,14.6,11.2,4.2,4.3,7.5,9.2,10,14.9,2.5,5.6,3.7,12,3.7,19.1s-1.7,15.9-5.2,22.1c-3.5,6.2-8.2,11.4-14.2,15.5-6,4.1-12.8,7.1-20.4,9.1-7.6,2-15.5,3-23.7,3-11.6,0-21.9-1.3-31-4-9.1-2.6-16.5-5.5-22.1-8.5s-9-5.1-10.1-6.1l19-32c1,.8,3,2,5.9,3.7,2.9,1.7,6.5,3.5,10.8,5.3,4.2,1.8,8.8,3.4,13.6,4.7,4.8,1.3,9.5,1.9,14.2,1.9,7.8,0,13.7-1.5,17.6-4.5,3.9-3,5.9-7,5.9-11.9s-1.2-6.9-3.7-9.8c-2.5-2.9-6.2-5.6-11.1-8.2-4.9-2.6-11.1-5.3-18.5-8.2-7.4-3-14.3-6.6-20.7-10.8-6.4-4.2-11.6-9.6-15.6-15.9-4-6.4-6-14.3-6-23.7s2.7-17.6,8-24.5c5.3-6.9,12.3-12.3,21-16,8.7-3.7,18-5.6,28-5.6Z"/>
    <path class="cls-1" d="M1960.5,361.3h107.5v33.4h-69.5v34.3h68.9v32.4h-68.9v34.8h69.5v33.4h-107.5v-168.3Z"/>
  </g>
  <g>
    <path class="cls-4" d="M1182.2,619.3h61.2c10.8,0,20.5,1.9,29.2,5.7,8.7,3.8,15.6,9.5,20.7,17.2,5.1,7.7,7.7,17.3,7.7,28.9s-2.6,21.2-7.7,29.3c-5.1,8-12,14.2-20.7,18.4-8.7,4.2-18.4,6.3-29.2,6.3h-23.1v62.6h-38.1v-168.3ZM1220.4,694.9h12.5c5.2,0,9.8-.8,14-2.3,4.1-1.5,7.4-4,9.9-7.3,2.5-3.4,3.7-7.8,3.7-13.3s-1.2-10.1-3.7-13.3c-2.5-3.3-5.8-5.6-9.9-7.1-4.1-1.4-8.8-2.2-14-2.2h-12.5v45.5Z"/>
    <path class="cls-4" d="M1377.6,619.3h37.9l66.4,168.3h-40.7l-12.2-33.8h-64.8l-12.4,33.8h-40.8l66.6-168.3ZM1376.9,720.4h39.4l-19.5-55.2h-.4l-19.5,55.2Z"/>
    <path class="cls-4" d="M1584.4,752.9c7.8,0,14.9-1.1,21.4-3.4,6.4-2.3,11.2-4.5,14.3-6.8l16.3,32.4c-4,3.4-10.8,6.8-20.5,10.3-9.6,3.5-21.1,5.2-34.4,5.2s-24.1-2.2-34.9-6.5c-10.9-4.3-20.5-10.4-28.8-18.3-8.3-7.9-14.8-17.1-19.5-27.7s-7.1-22.1-7.1-34.5,2.3-23.9,7-34.6c4.7-10.7,11.2-20,19.4-27.9s17.9-14,28.8-18.4c10.9-4.4,22.6-6.6,35-6.6s24.7,1.7,34.4,5.2c9.6,3.5,16.5,6.9,20.5,10.3l-16.3,32.4c-3.1-2.3-7.9-4.6-14.3-6.8-6.4-2.3-13.5-3.4-21.4-3.4s-16.2,1.3-22.7,4c-6.5,2.7-11.9,6.4-16.2,11-4.3,4.7-7.6,9.9-9.7,15.8-2.1,5.9-3.2,12-3.2,18.5s1.1,12.8,3.2,18.7c2.1,5.9,5.4,11.2,9.7,15.9,4.3,4.7,9.7,8.4,16.2,11,6.5,2.7,14,4,22.7,4Z"/>
    <path class="cls-4" d="M1728.3,700.6l64,87h-45.5l-51.8-73.6v73.6h-38.1v-168.3h38.1v68.8l47.7-68.8h43l-57.4,81.3Z"/>
    <path class="cls-4" d="M1861.8,619.3h37.9l66.4,168.3h-40.7l-12.2-33.8h-64.8l-12.4,33.8h-40.8l66.6-168.3ZM1861.2,720.4h39.4l-19.5-55.2h-.4l-19.5,55.2Z"/>
    <path class="cls-4" d="M2059.3,693.5h85.8v10.7c0,12.1-2,23.3-6.1,33.8-4,10.5-9.8,19.6-17.3,27.5-7.5,7.9-16.4,14.1-26.8,18.5-10.4,4.4-21.8,6.6-34.4,6.6s-24.8-2.2-35.4-6.7c-10.6-4.5-19.7-10.7-27.3-18.7-7.6-8-13.5-17.3-17.6-27.9-4.1-10.6-6.1-22-6.1-34.1s2-23.4,6.1-34c4.1-10.6,9.9-19.8,17.6-27.8,7.7-7.9,16.8-14.2,27.3-18.6,10.6-4.5,22.4-6.7,35.4-6.7s20,1.1,28.1,3.4c8.1,2.3,15.1,5.4,21,9.2,5.9,3.8,10.8,8,14.9,12.6,4.1,4.5,7.5,9,10.2,13.3l-36.2,17.1c-3.5-5.4-8.2-10-14.2-14-6-4-13.9-6-23.8-6s-13.2,1.4-18.9,4.1c-5.7,2.7-10.7,6.4-14.9,11.2-4.2,4.7-7.4,10.2-9.6,16.4-2.3,6.2-3.4,12.9-3.4,19.8s1.1,13.7,3.4,19.9c2.3,6.2,5.5,11.7,9.6,16.4,4.2,4.8,9.1,8.5,14.9,11.2,5.7,2.7,12,4,18.9,4s11.5-.8,16.4-2.3c4.9-1.5,9.2-3.7,12.8-6.6,3.6-2.9,6.5-6.3,8.5-10.3,2.1-4,3.3-8.3,3.8-13.1h-42.8v-29.1Z"/>
    <path class="cls-4" d="M2168.3,619.3h38.1v168.3h-38.1v-168.3Z"/>
    <path class="cls-4" d="M2271.2,654.2l2.8.5v132.9h-38.1v-168.3h52l68.2,132.6-2.8.5v-133.1h38.1v168.3h-52.3l-68-133.4Z"/>
    <path class="cls-4" d="M2500.1,693.5h85.8v10.7c0,12.1-2,23.3-6.1,33.8-4,10.5-9.8,19.6-17.3,27.5-7.5,7.9-16.4,14.1-26.8,18.5-10.4,4.4-21.8,6.6-34.4,6.6s-24.8-2.2-35.4-6.7c-10.6-4.5-19.7-10.7-27.3-18.7-7.6-8-13.5-17.3-17.6-27.9-4.1-10.6-6.1-22-6.1-34.1s2-23.4,6.1-34c4.1-10.6,9.9-19.8,17.6-27.8,7.7-7.9,16.8-14.2,27.3-18.6,10.6-4.5,22.4-6.7,35.4-6.7s20,1.1,28.1,3.4c8.1,2.3,15.1,5.4,21,9.2,5.9,3.8,10.8,8,14.9,12.6,4.1,4.5,7.5,9,10.2,13.3l-36.2,17.1c-3.5-5.4-8.2-10-14.2-14-6-4-13.9-6-23.8-6s-13.2,1.4-18.9,4.1c-5.7,2.7-10.7,6.4-14.9,11.2-4.2,4.7-7.4,10.2-9.6,16.4-2.3,6.2-3.4,12.9-3.4,19.8s1.1,13.7,3.4,19.9c2.3,6.2,5.5,11.7,9.6,16.4,4.2,4.8,9.1,8.5,14.9,11.2,5.7,2.7,12,4,18.9,4s11.5-.8,16.4-2.3c4.9-1.5,9.2-3.7,12.8-6.6,3.6-2.9,6.5-6.3,8.5-10.3,2.1-4,3.3-8.3,3.8-13.1h-42.8v-29.1Z"/>
  </g>
  <g>
    <path class="cls-3" d="M1182.2,877.2h61.2c10.8,0,20.5,1.9,29.2,5.7,8.7,3.8,15.6,9.5,20.7,17.2,5.1,7.7,7.7,17.3,7.7,28.9s-2.6,21.2-7.7,29.3c-5.1,8-12,14.2-20.7,18.4-8.7,4.2-18.4,6.3-29.2,6.3h-23.1v62.6h-38.1v-168.3ZM1220.4,952.8h12.5c5.2,0,9.8-.8,14-2.3,4.1-1.5,7.4-4,9.9-7.3,2.5-3.4,3.7-7.8,3.7-13.3s-1.2-10.1-3.7-13.3c-2.5-3.3-5.8-5.6-9.9-7.1-4.1-1.4-8.8-2.2-14-2.2h-12.5v45.5Z"/>
    <path class="cls-3" d="M1322.2,877.2h68.6c9.8,0,18.5,2,26.1,6.1,7.7,4.1,13.7,10,18.2,17.7,4.5,7.7,6.7,16.9,6.7,27.5s-1.9,19.3-5.7,26.1c-3.8,6.8-8.3,11.8-13.6,15.2-5.3,3.4-10.2,5.4-14.7,6.1l40.9,69.7h-42.8l-36.5-66.8h-9.2v66.8h-38.1v-168.3ZM1360.3,952.3h16.8c6.8,0,12.8-1.7,17.9-5,5.1-3.3,7.6-9.2,7.6-17.6s-2.5-14.3-7.5-17.5c-5-3.3-10.9-4.9-17.7-4.9h-17.1v45Z"/>
    <path class="cls-3" d="M1468.5,961.3c0-12.2,2.2-23.7,6.5-34.2,4.3-10.6,10.4-19.8,18.2-27.7,7.8-7.9,17-14.1,27.5-18.5,10.5-4.4,21.9-6.6,34.2-6.6s23.9,2.2,34.4,6.6c10.5,4.4,19.6,10.6,27.4,18.5,7.8,7.9,13.8,17.1,18.1,27.7,4.3,10.6,6.4,22,6.4,34.2s-2.1,23.8-6.2,34.4c-4.2,10.6-10.1,19.8-17.8,27.8-7.7,7.9-16.9,14.1-27.4,18.6-10.5,4.4-22.1,6.6-34.8,6.6s-24.7-2.2-35.3-6.6c-10.6-4.4-19.7-10.6-27.3-18.6-7.7-7.9-13.5-17.2-17.7-27.8-4.1-10.6-6.2-22-6.2-34.4ZM1508.1,961.3c0,9.6,2,18.3,5.9,26.1,4,7.8,9.4,14,16.4,18.6,7,4.6,15.2,6.9,24.4,6.9s17.4-2.3,24.4-6.9c7-4.6,12.5-10.8,16.4-18.6s5.9-16.5,5.9-26.1-2-18.3-5.9-26c-4-7.7-9.4-13.9-16.4-18.6-7-4.6-15.2-6.9-24.4-6.9s-17.4,2.3-24.4,6.9c-7,4.6-12.5,10.8-16.4,18.6-4,7.7-5.9,16.4-5.9,26Z"/>
    <path class="cls-3" d="M1741.4,993.8c0,11.5-2.1,21.3-6.4,29.5-4.3,8.2-10.4,14.5-18.4,18.8-7.9,4.3-17.3,6.5-28.1,6.5s-14.6-1-20.4-3c-5.8-2-10.4-4.2-13.8-6.5-3.4-2.3-5.5-4.1-6.2-5.3l14.3-33c1,1.4,2.5,3,4.3,4.7,1.9,1.7,4.2,3.2,6.9,4.4,2.7,1.2,5.8,1.8,9.2,1.8s7.4-.8,10.5-2.4c3.1-1.6,5.5-4.3,7.3-8,1.8-3.7,2.7-8.7,2.7-14.9v-109.1h38.1v116.5Z"/>
    <path class="cls-3" d="M1767.7,877.2h107.5v33.4h-69.5v34.3h68.9v32.4h-68.9v34.8h69.5v33.4h-107.5v-168.3Z"/>
    <path class="cls-3" d="M1993.1,1010.9c7.8,0,14.9-1.1,21.4-3.4,6.4-2.3,11.2-4.5,14.3-6.8l16.3,32.4c-4,3.4-10.8,6.8-20.5,10.3-9.6,3.5-21.1,5.2-34.4,5.2s-24.1-2.2-34.9-6.5c-10.9-4.3-20.5-10.4-28.8-18.3-8.3-7.9-14.8-17.1-19.5-27.7-4.7-10.6-7.1-22.1-7.1-34.5s2.3-23.9,7-34.6c4.7-10.7,11.2-20,19.4-27.9,8.3-7.9,17.9-14,28.8-18.4,10.9-4.4,22.6-6.6,35-6.6s24.7,1.7,34.4,5.2c9.6,3.5,16.5,6.9,20.5,10.3l-16.3,32.4c-3.1-2.3-7.9-4.6-14.3-6.8-6.4-2.3-13.5-3.4-21.4-3.4s-16.2,1.3-22.7,4c-6.5,2.7-11.9,6.4-16.2,11-4.3,4.7-7.6,9.9-9.7,15.8-2.1,5.9-3.2,12-3.2,18.5s1.1,12.8,3.2,18.7c2.1,5.9,5.4,11.2,9.7,15.9,4.3,4.7,9.7,8.4,16.2,11,6.5,2.7,14,4,22.7,4Z"/>
    <path class="cls-3" d="M2099.7,910.6h-40.2v-33.4h118.3v33.4h-40v134.9h-38.1v-134.9Z"/>
  </g>
</svg>